# xmcd
#
# Track frame offsets:
#	150
#	15743
#	28861
#	39395
#	51613
#	64051
#	81173
#	93661
#	105108
#	119273
#	136078
#	149370
#	163390
#	179336
#	193379
#	207358
#	220692
#	242221
#	260231
#	285708
#
# Disc length: 3997
#
# Revision: 2
# Processed by: cddbd v1.5.1PL0 Copyright (c) Steve Scherf et al.
# Submitted via: Media_Universe 3.0
# Normalized: r1:TRMNUM
#
DISCID=360f9b14
DTITLE=Sidney Bechet - Bechet Joue les Stars
DYEAR=1900
DGENRE=Jazz
TTITLE0=Summertime
TTITLE1=Laura
TTITLE2=Willow Weep for Me
TTITLE3=Stormy Weather
TTITLE4=The Man I Love
TTITLE5=These Foolish Things
TTITLE6=All the Things You Are
TTITLE7=September Song
TTITLE8=Embraceable You
TTITLE9=Pennies From Heaven
TTITLE10=That Old Black Magic
TTITLE11=I Get a Kick
TTITLE12=You're Lucky to Me
TTITLE13=Jeepers Creepers Solal
TTITLE14=Because of You
TTITLE15=I Only Have Eyes For You
TTITLE16=I Can't Get Started
TTITLE17=Crazy Rhythm
TTITLE18=Ain't Misbehavin'
TTITLE19=All of Me
EXTD=
EXTT0=
EXTT1=
EXTT2=
EXTT3=
EXTT4=
EXTT5=
EXTT6=
EXTT7=
EXTT8=
EXTT9=
EXTT10=
EXTT11=
EXTT12=
EXTT13=
EXTT14=
EXTT15=
EXTT16=
EXTT17=
EXTT18=
EXTT19=
PLAYORDER=
